/* XPM */
static char *eccf7e3ed6d14242881cae5c0b219989[] = {
/* columns rows colors chars-per-pixel */
"64 64 150 2 ",
"   c None",
".  c #003B9C",
"X  c #00439F",
"o  c #004A9F",
"O  c #354D9B",
"+  c #34519E",
"@  c #0044A2",
"#  c #004CA4",
"$  c #004FA8",
"%  c #0053A7",
"&  c #0054A9",
"*  c #005BAD",
"=  c #1453A4",
"-  c #1158A7",
";  c #195CAA",
":  c #005BB1",
">  c #384FA2",
",  c #2355A3",
"<  c #2956A3",
"1  c #2E5BA5",
"2  c #215FAB",
"3  c #2F5FA9",
"4  c #3455A2",
"5  c #3851A3",
"6  c #325BA5",
"7  c #3C5EA5",
"8  c #3A53A9",
"9  c #315FA8",
"0  c #0061AF",
"q  c #0C64AF",
"w  c #0065B4",
"e  c #0069B4",
"r  c #006EBC",
"t  c #1466B1",
"y  c #146BB4",
"u  c #0072BC",
"i  c #007ABF",
"p  c #0A7CBF",
"a  c #1671B7",
"s  c #1572B8",
"d  c #1F75BA",
"f  c #1F7CBE",
"g  c #2262AD",
"h  c #2E65AD",
"j  c #2D68AF",
"k  c #3D60A7",
"l  c #3162AB",
"z  c #3C64AA",
"x  c #3669AE",
"c  c #3B6AAF",
"v  c #2667B0",
"b  c #226EB4",
"n  c #2C6BB2",
"m  c #336DB2",
"M  c #3A6EB2",
"N  c #2971B6",
"B  c #2774B8",
"V  c #2875B9",
"C  c #237ABD",
"Z  c #2C7BBD",
"A  c #3472B6",
"S  c #3875B7",
"D  c #3276B9",
"F  c #3B77B8",
"G  c #347BBC",
"H  c #3B7DBD",
"J  c #456DAF",
"K  c #4A6CAD",
"L  c #546FAD",
"P  c #4072B4",
"I  c #4F75B4",
"U  c #5175B3",
"Y  c #5878B4",
"T  c #557FBA",
"R  c #137EC1",
"E  c #1F7FC1",
"W  c #257FC0",
"Q  c #2A7FC0",
"!  c #4B83BF",
"~  c #5E85BD",
"^  c #6D87BA",
"/  c #6188BF",
"(  c #6B89BD",
")  c #7086B9",
"_  c #758BBB",
"`  c #068DCB",
"'  c #0B8DCB",
"]  c #1687C6",
"[  c #1B83C3",
"{  c #1588C7",
"}  c #118BC9",
"|  c #0590CD",
" . c #0B95D6",
".. c #0897D9",
"X. c #069BDF",
"o. c #1294D5",
"O. c #2481C2",
"+. c #2D83C3",
"@. c #3085C4",
"#. c #4788C3",
"$. c #5A8DC4",
"%. c #5690C7",
"&. c #6B8DC1",
"*. c #708EC1",
"=. c #7D94C1",
"-. c #719BCA",
";. c #7B9DC9",
":. c #77A1CF",
">. c #8393BF",
",. c #8E9EC5",
"<. c #82A4CE",
"1. c #8FA4CB",
"2. c #94A2C6",
"3. c #98A4C7",
"4. c #95ABCF",
"5. c #9DAACB",
"6. c #9CAFD1",
"7. c #94B1D5",
"8. c #9DB5D6",
"9. c #99B6D8",
"0. c #A7B2CF",
"q. c #A3B4D3",
"w. c #ABB5D1",
"e. c #AEBAD5",
"r. c #ADBFDA",
"t. c #B2BDD6",
"y. c #B4BFD8",
"u. c #ADC0DC",
"i. c #B3C4DE",
"p. c #BAC5DC",
"a. c #BEC9DE",
"s. c #BDCCE3",
"d. c #C0CFE4",
"f. c #C6D0E3",
"g. c #CCD3E5",
"h. c #CCD8E9",
"j. c #D3D8E6",
"k. c #D3DCEA",
"l. c #DBDFEB",
"z. c #D6E0ED",
"x. c #DDE3EE",
"c. c #E1E5EF",
"v. c #E3E7F0",
"b. c #E5EAF2",
"n. c #EAEDF4",
"m. c #EFF2F7",
"M. c #F0F2F7",
"N. c #F3F5F9",
"B. c #F6F8FB",
"V. c #FEFEFF",
/* pixels */
"        } } } { { [ ] O.[ [ O.E E C f C C C C B B B N N N n n n n n j j j x h h h l l l 1 6 l 6 6 6 + 6 4 4 4 + + + + O         ",
"    `  .o.} { { { { ] [ [ [ [ E E W f C C Z C C B B N B N N N n n n n n j j h h l l 1 l l l 6 6 6 6 6 + 4 4 + + + + + 5 5 O     ",
"  ` X.' } } { ] { [ [ [ [ [ W E E f f C C V C V B B B N N N n N n n j j j h h h h l l l 6 6 6 6 6 6 6 6 4 4 4 + + + + O O 8 O   ",
"  ..` } } } { { [ { { [ [ [ E E E W f f C C V C B B B N N N N j n n n j h h h h l l l 1 l 6 l 6 6 6 6 + 4 4 + 4 + + + O O O 5   ",
"|  .` } } } { { ] ] [ ] E E E E E E C C C V C B V B B N N N n N n n n n n h h h h l l l l 6 6 6 6 + 6 + 6 + + + + + O O O O > O ",
"| | | ' } } { { ] { [ [ [ [ [ E E C C C C C B C V B B N N N N n n n h n h h h h h l 1 l l l 6 l 6 1 6 6 6 + 4 + + > O O O O O O ",
"| ' ` } } } { { { ] ] [ [ [ E E E E C C C C C B V B N N N N j n n n n h n h h h l l l l 6 l 6 6 6 6 + + + 4 + + + O O O O O O O ",
"| ` ` ' } } } { ] ] [ [ [ E [ E E C C C C C C V V B B N N N N n n n n n h h h h l l l 1 l 6 6 6 6 6 6 6 4 4 4 + + + O O O O O O ",
"` ` ` } } } { { ] ] [ [ ] [ E E E E C C C C C B B B V D S S A m m m M M m l h h l l 3 9 l 6 6 6 6 1 6 4 4 4 4 + + + O O O O O O ",
"| ` ` ' } } { { ] ] [ [ [ O.[ E E C C C C C C V Z S V w * * 0 w w * % % * h M x h l 3 h 6 l l 6 6 6 4 4 4 4 + + + + 4 O O O O O ",
"| ` ` } } } { { ] ] [ ] [ [ W E E E C C C C V G a w a ;.r.g.x.v.v.x.g.e.=.g # 2 c l h 6 l 6 l 6 6 6 4 6 4 4 4 + + 4 O + O O O O ",
"| | ` o.} } { { ] ] [ [ [ E [ E E C C C C Z V e ! i.n.V.V.V.V.V.V.V.V.V.V.n.y.I # z l 3 6 l 6 6 6 6 6 4 4 4 4 + + O O O O O O O ",
"| | ' } } } { { { { [ ] [ E E E E C C C G u r i.B.V.V.V.V.V.V.V.V.V.V.V.V.V.V.B.e.& - z 9 6 6 6 6 6 4 4 4 4 4 + O O O O O O O O ",
"| | ` } } } { { ] { [ [ E [ [ E E E E +.r $.v.V.V.V.V.V.V.V.V.V.V.V.V.V.V.V.V.V.V.c.Y # z 3 l 6 6 6 4 6 4 4 + + O O O O O O O O ",
"` ' ` | } } { ] ] ] [ [ ] W E E E C G u ;.B.V.V.V.V.V.V.V.V.V.V.V.V.V.V.V.V.V.V.V.V.N._ # z 6 6 6 6 6 4 4 4 4 + + O O O O O O O ",
"| | ` } } } { ] ] ] ] ] E [ [ E f +.u -.B.V.V.V.V.V.V.V.V.V.V.V.V.V.V.V.V.V.V.V.V.V.V.B.) # k 6 6 1 6 4 4 4 + 4 + + O O O O O O ",
"| | ` } } } } { ] ] [ [ ] W E E Q R #.M.V.V.V.V.V.V.V.V.b.a.6.1.1.q.f.M.V.V.V.V.V.V.V.V.N.K , 7 6 + 6 6 4 4 + + + + O O O O O O ",
"| | ` ' } } { { ] ] [ [ ] E E E E R k.V.V.V.V.V.V.V.x.;.w * * * * & % m q.m.V.V.V.V.V.V.V.j.X 7 6 6 6 + 4 4 4 + + + + + O O O O ",
"| | ' } } } { { ] ] [ ] E E E @.R 7.B.V.V.V.V.V.V.r.w w D S A S M M M n $ c j.V.V.V.V.V.V.V.3.X k 6 6 + 4 4 + 4 + + O O O O O O ",
"| ' ` } } } { { { ] [ ] ] E O.[ R z.V.V.V.V.V.V.8.: D D N N n n n n n j M g % j.V.V.V.V.V.V.b.; 6 6 4 6 4 4 4 + + + + O O O O O ",
"| ` ` } } } { { R ] E E E E E R 7.V.V.V.V.V.V.i.: F N N N n N n n n n n j x h & c.V.V.V.V.V.V.>.X 7 6 + 4 4 + + O O O O O O O O ",
"| ` ` ' } } { { o.E ] ] R R W R h.V.V.V.V.V.b.u Z V V N N N N n n n j n j h M & _ V.V.V.V.V.V.g.. k 6 4 4 4 4 + O O O O O O O O ",
"| | ` } } } { { { { E E E E R Q N.V.V.V.V.V.7.w G B V N N N N n n n n j j h h c # g.V.V.V.V.V.m.k 4 6 6 4 4 + + + + O O O O O O ",
"| ' ` ' } } { { { { [ o.R Q R :.V.V.V.V.V.N.H B V V N N N N n N n n n j j l h c $ ,.V.V.V.V.V.V._ o 7 + 4 4 4 + + + O O O O O O ",
"| ` ` } } } { { { ] [ [ [ @.R 9.V.V.V.V.V.k.e G V B B N N n N n n n n j h j h l 2 U N.V.V.V.V.V.3.. 7 4 4 4 + 4 + O + O O O O O ",
"| ` ` ' } } } { R ] ] [ R @.R 9.V.V.V.V.V.s.w G V B B N N N n n n n n h h h l j x ; b.V.V.V.V.V.w.. 7 6 4 4 4 + + + + O O O O O ",
"| ` ` } } } { ] { { [ [ E Q R s.V.B.V.V.V.i.w G V B B N N N N n n n n n j h j l z & v.V.V.V.V.V.e.. 7 4 4 4 + + + + O O O O O O ",
"| ` ` ' } } { { [ { ] [ R Q w s.V.V.V.V.V.u.w G V B B N N N n n n n n n j h h j z * v.V.V.V.V.V.w.. 7 6 4 4 4 + + + + O O O O O ",
"| ` ` ' } { { { { ] ] [ [ @.: s.V.V.V.V.V.r.w G V B B N N N N n n n n j j h h x h K N.V.V.V.V.V.5.. 7 + 4 4 + + O O O O O O O O ",
" .` ` ' } } { { { [ [ [ [ @.R s.V.V.V.V.V.u.w G B B B N N N N n n n j n j h h x & _ V.V.V.V.V.V.>.X k 4 4 4 4 + O O O O O O O O ",
"| ' ` } } } } { { ] [ [ [ @.R s.V.V.V.V.V.u.w G B B B N N N n n n n j j j j h c @ a.V.V.V.V.V.N.L < 6 + 4 4 + + + O O O O O O O ",
"| | ` } } } { { { [ ] [ [ @.R u.V.V.V.V.V.u.w G V B B N N n N n n n n j h h x 2 U N.V.V.V.V.V.l.X k 6 6 4 4 4 + + + O O O O O O ",
"| ` ` } } } { { { { [ [ [ @.r s.V.V.V.V.V.u.w G B B B N N N N n n n n j j h J @ g.V.V.V.V.V.V.0.. 7 4 4 4 4 + + + + + O O O O O ",
"| ` ` ' } { { { ] { [ [ [ @.r s.V.V.V.V.V.u.w G B B B N N N n n n n n j m c @ e.V.V.V.V.V.V.B.K < 6 4 6 4 4 4 + + + O + O O O O ",
"| | ` ' } } { { ] ] [ ] [ @.r s.V.V.V.V.V.u.w G B B V N S S A n n A M M * # t.V.V.V.V.V.V.V.y.. k 6 6 4 4 4 4 + + + O O O O O O ",
"| ' ` ' } } { { ] ] [ [ [ @.r s.V.V.V.V.V.u.w G B V B N w * w t t : & & ( k.V.V.V.V.V.V.V.n.6 6 6 6 4 6 4 4 4 + + + + O O O O O ",
"| ' ` } } } { { ] ] [ [ [ +.r s.V.B.V.V.V.u.w G V B V y q.4./ ~ ~ *.5.k.V.V.V.V.V.V.V.V.V.>.# k 6 4 6 + 4 4 + + O O O O O O O O ",
"| ` | ' } { } { ] ] [ [ [ @.r s.V.V.V.V.V.u.w G V B D w n.V.B.B.N.V.V.V.V.V.V.V.V.V.V.V.0.X z 6 6 6 6 6 4 + 4 + O O O O O O O O ",
"| | ` } } } { [ { { { [ [ @.u s.V.V.V.V.V.u.w G V B D w x.V.V.V.V.V.V.V.V.V.V.V.V.V.V.t.@ k 6 6 6 6 4 4 4 4 4 4 + + O O O O O O ",
"| ` ` ' } ' { { { [ { [ [ @.r s.V.V.V.V.V.u.w G V B D 0 c.V.V.V.V.V.V.V.V.V.V.V.V.V.5.@ z 6 l 6 6 6 6 4 4 4 + + + O O O O O O O ",
"| ' ` ' } } { { ] ] [ [ [ @.r s.V.V.V.V.V.u.w G B B D w x.V.V.V.V.V.V.V.V.V.V.V.x.^ # z 6 l 6 6 6 6 4 6 4 4 + 4 + + + O O O O O ",
"| ` ` ' } } { { { ] [ [ [ @.r s.V.V.V.V.V.u.w G V B D w b.V.V.V.V.V.V.V.V.V.v.5.& & z l l 6 6 6 6 6 6 4 4 4 4 + + + + O O O O O ",
"| | ` } } } { { { ] [ ] [ +.r s.V.B.V.V.V.u.w G V B D e f.B.B.V.V.V.N.x.p.=.& $ z z h 1 6 l 6 6 6 6 6 4 4 4 + + + + O O O O O O ",
"| ' ` } } } { { { [ { [ ] @.r s.V.V.V.V.V.u.w G B B B N e F / &./ ~ P & % & x c h h l l l 6 l 6 6 6 6 4 4 4 4 + + + O + O O O O ",
"| ` ` } } } { { ] ] [ [ [ @.r s.V.V.V.V.V.u.w G V B B N A b q w 0 q v m M c h h h h 1 l 6 6 l 6 6 6 6 + 4 4 + + O O O O O O O O ",
"| ` ` ' } } { { ] ] [ [ [ @.r s.V.V.V.V.V.u.w G B B B N N N N A A m n j j h h h h 1 h h 6 l 6 6 6 + 6 6 4 4 4 + O O O O O O O O ",
"| | ` } } } { { { ] [ [ [ @.r s.V.V.V.V.V.i.w G V B N V N n N n n n j j j h h h l l h 6 l 6 6 6 6 1 4 6 4 4 + + + O O O O O O O ",
"| ' ` ' } } { { { { [ [ [ @.r s.V.B.V.V.V.<.r Z V B B N N N n N n n n j h j h h l l 3 l l 6 l 6 6 6 6 + 4 4 4 + + + O O O O O O ",
"| ' ` } } } } { [ { { [ [ @.r s.V.V.V.V.8.w G B B B B B N n N n n n n j j h h h l l l 1 l 6 6 6 6 + 6 6 4 4 4 + + + O O O O O O ",
"| ` | ' } } { { { ] [ { [ @.r s.V.V.V.i.e G C B B B B n N N n n n n n j h h h h l l l l l l 6 l 6 6 6 + 4 4 + + + + + O O O O O ",
" .` ` } } } { { [ ] [ [ [ @.r s.V.V.s.e Q Z V C N B B B N N N n n n n j j h h h l l l l 6 6 6 6 6 6 6 + 4 4 4 + + + + + O O O O ",
"` ` ` ' { } { { { ] [ [ [ @.r s.V.h.u Z Z C C B V B B N N N n n n n n n j h h h h l l 1 l l 6 6 6 6 6 6 4 4 + + + + O O O O O O ",
"| ` ` } } } { { ] ] ] [ [ @.e h.b.u W Z C C C B V B B N N N N n n n n h j h h h l l l 1 l 6 6 6 6 + 6 + 4 + 4 + O O O O O O O O ",
"| ` ` ' } } { { ] ] ] [ [ O.R 7.%.u Q f C C B C B B B N N N N n n n n n j j h h h l l l 6 l l 6 6 1 6 6 6 4 4 + O O O O O O O O ",
"| ' ` ' } } } { ] ] ] [ [ [ E R p Q E C C C C B V B B N N N n n n n j j h h h h h l l l l 6 l 6 6 6 + + 4 4 + + + + O O O O O O ",
"| | ` } } } { { ] ] [ [ [ E R E W E C C C V d B V B B N N n N n n n n n j h h h l l l 1 6 l 6 6 6 6 6 6 4 + 4 + + + O O O O O O ",
"| ' ` ' } } { ] ] ] [ [ ] [ W E E C f f C V C B V N V N N N n N n n n h h h h h l l l l 1 l 6 6 6 6 4 6 4 4 + 5 + + + O O O O O ",
"| ` ` } } } { ] ] ] [ [ [ [ E E E f C C C C C B V B B V N N N n n n n j n h h h l l l 1 l 6 l 6 6 6 6 4 4 4 + + + O O + O O O O ",
"| ' ` ' } } } ] ] ] [ ] [ [ [ E f W C C C W C B V B N N N n n n n n j n n h h h l l h 1 6 l 6 6 6 6 6 4 4 4 + + + + O O O O O O ",
"| ..` ' } } { ] ] ] [ [ E [ E E E E W f C V C B V B V N N N N n n n n h h h h h h l l l l 6 6 6 6 6 6 4 4 4 4 + + + + O O O O O ",
"  ..` ' } } } ] { ] ] [ [ [ E E E d W C W V d B V B B N N N n N n n n h j l j h l l l l 6 l l 6 6 6 + 6 4 4 + + + + + O O O >   ",
"  ` X.' } } ] { ] ] [ ] [ E [ E E W f C C C C B V B B N N b n n n n m n j h h h l l l 1 l 6 6 6 6 6 6 + 4 4 4 + + + O O O 8 O   ",
"    ` o.o.o.{ { ] ] [ [ [ [ W E E C E W C C B C B B B N N N n n n n j j j h l j h l l l l 6 6 6 6 6 6 + 4 4 + + + + + 8 5 O     ",
"        } } { { ] ] [ { E [ E E E E C d W V W V V B B N N N N n n n n n j h h h h l 1 l l 6 6 6 6 6 6 6 4 4 4 + + + + O         "
};
