/* XPM */
static char *ba115404c1384715a3f3dd1b09408232[] = {
/* columns rows colors chars-per-pixel */
"32 32 114 2 ",
"   c None",
".  c #003C9D",
"X  c #00439D",
"o  c #354C9B",
"O  c #34519E",
"+  c #0045A2",
"@  c #004BA6",
"#  c #0C4EA1",
"$  c #0052A7",
"%  c #0053AB",
"&  c #0059AA",
"*  c #1F5CA8",
"=  c #005DB0",
"-  c #2050A0",
";  c #2D54A2",
":  c #2359A6",
">  c #2B59A5",
",  c #3454A1",
"<  c #325AA4",
"1  c #3B5CA4",
"2  c #3B54AB",
"3  c #315EA8",
"4  c #0060AE",
"5  c #1F60AB",
"6  c #0065B3",
"7  c #006AB6",
"8  c #006DB8",
"9  c #0370B7",
"0  c #0075BE",
"q  c #0973B9",
"w  c #0178BE",
"e  c #1277BB",
"r  c #137CBF",
"t  c #1E7DBF",
"y  c #2E65AD",
"u  c #2F68AF",
"i  c #3D60A6",
"p  c #3162AB",
"a  c #3B64AA",
"s  c #3168AF",
"d  c #3C68AD",
"f  c #2C6BB2",
"g  c #356CB1",
"h  c #3B6DB2",
"j  c #2472B7",
"k  c #2972B6",
"l  c #2676BA",
"z  c #2E77BA",
"x  c #237ABD",
"c  c #2C7EBF",
"v  c #3473B6",
"b  c #3972B5",
"n  c #3276B9",
"m  c #3877B9",
"M  c #3379BB",
"N  c #4364A8",
"B  c #5A73AE",
"V  c #476EB0",
"C  c #4370B2",
"Z  c #5A7BB5",
"A  c #007DC1",
"S  c #207EC0",
"D  c #297FC0",
"F  c #6B80B5",
"G  c #7489BA",
"H  c #068FCC",
"J  c #0A8DCA",
"K  c #1786C5",
"L  c #1C82C3",
"P  c #1488C7",
"I  c #108BC9",
"U  c #0590CD",
"Y  c #2484C3",
"T  c #2A86C4",
"R  c #0B9CE1",
"E  c #548AC2",
"W  c #5B8CC3",
"Q  c #5F91C6",
"!  c #5691C8",
"~  c #6E94C5",
"^  c #7593C3",
"/  c #7B94C2",
"(  c #7EA5D0",
")  c #808FBB",
"_  c #8795BE",
"`  c #8598C3",
"'  c #94A0C5",
"]  c #86A9D1",
"[  c #8DADD4",
"{  c #9AAED1",
"}  c #94B1D6",
"|  c #A9B3CF",
" . c #A5B4D2",
".. c #AFBCD6",
"X. c #B2BBD4",
"o. c #B2C2DC",
"O. c #BEC7DD",
"+. c #BFC9DE",
"@. c #BECAE0",
"#. c #C3CBDE",
"$. c #C3CDE1",
"%. c #C4D0E4",
"&. c #C9D1E3",
"*. c #D2D6E5",
"=. c #D3DDEB",
"-. c #DBE2ED",
";. c #DDE5F0",
":. c #E2E6EF",
">. c #E1E6F1",
",. c #E6EAF2",
"<. c #EEF1F6",
"1. c #F1F3F7",
"2. c #F3F5F8",
"3. c #FEFFFF",
/* pixels */
"    I P P K L Y S x x l l j k f f f u u p > p < < 1 , , O o     ",
"  R I P K L L S Y x x l l k k f f f u y p y < < > < , , O O 2   ",
"H J I P K L L L S x x l l k k f f u u y p 3 y < < < , , , o o o ",
"U J I P K K L S S x x x z m v f f g h p y y < 3 < < , O O o o o ",
"H J I P K K L S t t l M 7 = 6 f g & @ & d p 3 < < < , , O o o o ",
"H J I P K L L Y t c x 6 ~ $.>.<.<.;.O.G + y a > < , , , O o o o ",
"H J I P P L L S S w e %.3.3.3.3.3.3.3.3.#.* : 1 < < , , O o o o ",
"H J I P P L L Y S c >.3.3.3.3.3.3.3.3.3.3.:.< > < < , , O o o o ",
"H J I P K K S D 8 =.3.3.3.-.{ ^ /  .,.3.3.3.*.X 1 < , , O o o o ",
"H J I P K K T 0 } 3.3.3.o.= = 6 & $ & &.3.3.3.' X 1 , , O o o o ",
"H J I P K S T 0 ;.3.3.%.= m m v v h s @ =.3.3.-.X 1 , O O o o o ",
"H J I P K Y A ! 2.3.3.W 9 n f k f f h $ ` 3.3.2.B - 1 O O o o o ",
"H J J P L Y 0 ] 3.3.,.8 z k k f f u u y V 2.3.3.) X 1 , O o o o ",
"H J P P P T A [ 3.3.-.7 M k k f f f y y a 1.3.3._ . 1 , O o o o ",
"H J P P K T 0 [ 3.3.-.7 M k k f f f u * Z 2.3.3.G X 1 O O o o o ",
"H J J P K T 0 [ 3.3.-.7 M l k f f f V +  .3.3.2.N O , O O o o o ",
"H J I P K T A [ 3.3.;.7 m k v b g h @ Z 2.3.3.&.. 1 < O O o o o ",
"H J I P K D A [ 3.3.-.7 M k 6 & % & ` 2.3.3.3.F X 1 , , O O o o ",
"H J I P K T 8 [ 3.3.-.7 z n %.$.+.-.3.3.3.3.| . N < O , O o o o ",
"H J I P K T A [ 3.3.-.7 M k 2.3.3.3.3.3.3.X.+ a < < , O O o o o ",
"H J I P K T A [ 3.3.-.7 M k 2.3.3.3.3.:.` + a < < < < , O o o o ",
"H J I P K T 0 [ 3.3.-.7 M j  .$.$.X.` % $ a 3 3 < < O O O o o o ",
"H J I P K T A [ 3.3.-.7 M k = & % $ & s d 3 3 < < < < O o o o o ",
"H J I P K T 0 [ 3.3.=.6 M k b b b h g y p p 3 < < < O O O o o o ",
"H J I P K T A ] 3.1.E q z l k k f y y y p p 3 3 < O < O O o o o ",
"H J I P K T A } 2.~ 8 M l k k f f u y y y y 3 < < < O < O O o o ",
"H J I P K S A ] ] 8 M x l k k f f f u y p 3 3 < < < O O O o o o ",
"H J I K K S S A 0 D x l l j k f f y u y p y p < < < O , O o o o ",
"U J I P K S K S D x x l l k k f f y y u p y < 3 < < , , O o o o ",
"U J I P K K L S S S x l l k k k f f y u 3 y < < < , , , O o o o ",
"  R I P P L L S S x x l l k f f f f y u p 3 3 3 < < , , O , 2   ",
"    I P P K L S S x x l l k j f f u y y y y 3 1 < , , , O o     "
};
