/* XPM */
static char *_3d4a7d1ad174db2c39337ec2bc7f1a1[] = {
/* columns rows colors chars-per-pixel */
"16 16 168 2 ",
"   c None",
".  c #00399B",
"X  c #003D9C",
"o  c #0036A1",
"O  c #07449C",
"+  c #204B9E",
"@  c #354B99",
"#  c #354B9A",
"$  c #354C9A",
"%  c #344F9D",
"&  c #2D509F",
"*  c #34509D",
"=  c #37519E",
"-  c #38529E",
";  c #3A539E",
":  c #0043A4",
">  c #004AA6",
",  c #004CA4",
"<  c #004EA6",
"1  c #0952A3",
"2  c #0050A9",
"3  c #0054AB",
"4  c #0057AB",
"5  c #0053AE",
"6  c #0059AA",
"7  c #0058AD",
"8  c #1053A4",
"9  c #1C50A1",
"0  c #255EA9",
"q  c #3253A0",
"w  c #3353A1",
"e  c #3551A0",
"r  c #3354A0",
"t  c #3354A1",
"y  c #3454A0",
"u  c #3454A1",
"i  c #3554A1",
"p  c #3857A1",
"a  c #3158A3",
"s  c #3259A4",
"d  c #3459A4",
"f  c #345AA4",
"g  c #305DA7",
"h  c #315DA7",
"j  c #335EA7",
"k  c #3D59A2",
"l  c #3E5AA2",
"z  c #395CA5",
"x  c #0060AE",
"c  c #0060B2",
"v  c #0061B2",
"b  c #0062B2",
"n  c #0063B3",
"m  c #0065B1",
"M  c #0066B3",
"N  c #0568B2",
"B  c #0069B4",
"V  c #006AB6",
"C  c #006CB6",
"Z  c #106AB3",
"A  c #0071B9",
"S  c #0071BD",
"D  c #0076BC",
"F  c #177BBE",
"G  c #2E66AE",
"H  c #3E60A6",
"J  c #3062AA",
"K  c #3363AB",
"L  c #3860A8",
"P  c #3966AC",
"I  c #3669AF",
"U  c #2C6AB1",
"Y  c #2A6FB5",
"T  c #2B6FB5",
"R  c #366DB2",
"E  c #3B6BB0",
"W  c #3A6FB3",
"Q  c #2673B8",
"!  c #2674B8",
"~  c #2874B8",
"^  c #2E75B8",
"/  c #2478BB",
"(  c #2578BB",
")  c #207CBE",
"_  c #217DBF",
"`  c #247DBF",
"'  c #267DBF",
"]  c #297ABC",
"[  c #2C7ABC",
"{  c #3472B6",
"}  c #3C70B3",
"|  c #3874B6",
" . c #3C75B6",
".. c #3E76B7",
"X. c #3076B9",
"o. c #317BBC",
"O. c #456CAE",
"+. c #566FAC",
"@. c #4273B4",
"#. c #5974B0",
"$. c #6C7EB3",
"%. c #007BC1",
"&. c #007EC1",
"*. c #007EC2",
"=. c #6787BC",
"-. c #6188BE",
";. c #778FBE",
":. c #0082C4",
">. c #0383C4",
",. c #088ECB",
"<. c #088ECC",
"1. c #088FCC",
"2. c #088FCD",
"3. c #1785C5",
"4. c #1786C5",
"5. c #1C81C2",
"6. c #1D82C3",
"7. c #1886C5",
"8. c #1B86C5",
"9. c #1D86C5",
"0. c #1189C8",
"q. c #128AC8",
"w. c #178AC8",
"e. c #118CCC",
"r. c #128CCC",
"t. c #188AC8",
"y. c #2081C2",
"u. c #2181C2",
"i. c #2182C3",
"p. c #2B88C6",
"a. c #208BC8",
"s. c #218BC8",
"d. c #3185C3",
"f. c #4185C2",
"g. c #4E8EC7",
"h. c #6899CB",
"j. c #6A9ACC",
"k. c #6B9BCC",
"l. c #6C9BCC",
"z. c #7597C6",
"x. c #95A5CA",
"c. c #80A6D1",
"v. c #A0B6D6",
"b. c #A2B7D6",
"n. c #A3B8D7",
"m. c #A4B8D7",
"M. c #B2BCD5",
"N. c #B0BCD7",
"B. c #B8BFD6",
"V. c #B0BED8",
"C. c #BAC4DA",
"Z. c #B8C9E0",
"A. c #C6CDDF",
"S. c #C3CEE2",
"D. c #C7D2E5",
"F. c #CBD2E3",
"G. c #CDD3E3",
"H. c #D7DBE7",
"J. c #D7DEEB",
"K. c #DDE2ED",
"L. c #DCE3EF",
"P. c #E1E5EE",
"I. c #E1E6EF",
"U. c #E9ECF3",
"Y. c #EFF1F6",
"T. c #FAFAFC",
"R. c #FBFCFD",
"E. c white",
/* pixels */
"  q.7.6._ ( X.| W I J h s t %   ",
"2.r.7.5.` o.B 7 2 6 P j s w e $ ",
"<.q.3.u.) V z.V.N.;., g f t * # ",
"1.q.8.y.D D.E.E.E.E.A.8 d i * # ",
",.0.p.S Z.E.S.-.=.F.E.B.. l % @ ",
",.t.>.d.R.J.5 N x : P.T.H & = @ ",
",.a.*.h.E.m.n ..@.< M.E.$.O ; @ ",
",.a.*.l.E.n.v  .} o G.E.+.+ - @ ",
",.a.*.k.E.n.b Z 3 x.E.H.X k * @ ",
",.a.*.l.E.v.C I.Y.E.Y.#.9 p * @ ",
",.a.*.l.E.b.M K.U.C.O.1 z q * @ ",
",.a.*.j.E.v.c m 4 > 0 L a y * @ ",
"1.s.%.c.L.] Q { R E K h s r * # ",
"<.w.:.g.f.A ^ Y U G J h s u * # ",
"2.e.9.&.F [ ! T U G J h s w e $ ",
"  q.4.i.' / ~ Y U G J h s t %   "
};
